<svg height="512" viewBox="0 0 60 60" width="512" xmlns="http://www.w3.org/2000/svg"><g id="Page-1" fill="none" fill-rule="evenodd"><g id="028---Coloured-Pencil" fill="rgb(0,0,0)" fill-rule="nonzero"><path id="Shape" d="m47.222 1.464c-1.9545523-1.94883477-5.1174477-1.94883477-7.072 0l-35.736 35.736-.487.487c-.7537191.7503106-1.24687914 1.7226105-1.407 2.774l-2.475 16.028c-.15071287.8718808.09114613 1.7658265.66090042 2.4427833s1.40928868 1.0678747 2.29409958 1.0682167c.16593827.0001299.33156976-.0142583.495-.043l16.043-2.477c1.0509763-.1598451 2.0229429-.6526634 2.773-1.406l.486-.487 35.738-35.738c1.9525763-1.9526137 1.9525763-5.1183863 0-7.071zm-7.841 3.6c1.2207502-.58548714 2.6762453-.35630038 3.658.576.9390562.98619475 1.1703464 2.45036916.581 3.678l-31.42 31.417c-.3251125-2.1939403-2.0418532-3.9200067-4.234-4.257zm9.919 9.876-31.441 31.436c-.3311178-2.1875428-2.0483791-3.9043987-4.236-4.235l31.437-31.436c1.2155936-.6078953 2.6837538-.370139 3.6453629.5903362.9616092.9604751 1.2010977 2.4283537.5946371 3.6446638zm-46.129 43.045c-.32329334.055683-.65333752-.0507433-.88320189-.2847979-.22986436-.2340546-.33031167-.5659673-.26879811-.8882021l.681-4.433c1.18520301.3028582 2.2657494.9222885 3.126 1.792.87107224.8608776 1.49155769 1.9424926 1.795 3.129zm16.062-2.485-9.624 1.49c-.37308438-1.6061263-1.19340297-3.0737546-2.366-4.233-1.15921198-1.1726409-2.62685381-1.9929671-4.233-2.366l1.49-9.624c.09431601-.631265.38875704-1.2155902.84-1.667l.366-.365c1.2198302-.5849799 2.67419993-.3557824 3.655.576.9574257 1.0205287 1.1729353 2.531495.539 3.779-.20594307.3870332-.13577323.8630791.1730832 1.1742301.3088564.3111511.7843698.3848426 1.1729168.1817699 1.2462801-.6355962 2.7570717-.4233659 3.78.531.9537783 1.0206046 1.1671864 2.5288487.534 3.774-.2061784.3874047-.1356804.8639667.1738309 1.1750852.3095112.3111185.7857017.3840839 1.1741691.1799148 1.2456658-.6352592 2.7557086-.4230218 3.778.531.9341031.9830018 1.1626345 2.441382.574 3.663l-.364.364c-.4505632.4494823-1.0334746.7425153-1.663.836zm2.867-6.278c-.7608792-.7733981-1.7555878-1.2742673-2.83-1.425l31.414-31.417c1.2171322-.6251157 2.698435-.3947368 3.6682285.5704994.9697936.9652362 1.2071472 2.4454374.5877715 3.6655006l-31.419 31.418c-.1506789-1.0683668-.6502557-2.0569734-1.421-2.812zm35.1-30.876c-.1537051-1.0639379-.6530187-2.0478072-1.421-2.8-1.1014064-1.1115871-2.6580246-1.6462355-4.21-1.446.1921248-1.5521143-.3421076-3.106119-1.4479943-4.21200568s-2.6598914-1.6401191-4.2120057-1.44799432c.1997386-1.55289907-.3356228-3.11017969-1.448-4.212-.751672-.76834259-1.7359046-1.26713762-2.8-1.419 1.1799454-1.09380356 3.012669-1.06203753 4.154.072l11.306 11.311c1.1430927 1.1373382 1.1754253 2.9772003.073 4.154z"/></g></g></svg>