<?xml version="1.0" encoding="iso-8859-1"?>
<!-- Generator: Adobe Illustrator 16.0.0, SVG Export Plug-In . SVG Version: 6.00 Build 0)  -->
<!DOCTYPE svg PUBLIC "-//W3C//DTD SVG 1.1//EN" "http://www.w3.org/Graphics/SVG/1.1/DTD/svg11.dtd">
<svg version="1.1" id="Capa_1" xmlns="http://www.w3.org/2000/svg" xmlns:xlink="http://www.w3.org/1999/xlink" x="0px" y="0px"
	 width="72.41px" height="72.41px" viewBox="0 0 72.41 72.41" style="enable-background:new 0 0 72.41 72.41;" xml:space="preserve"
	>
<g>
	<path d="M71.237,38.112c-0.643,0-1.168,0.524-1.168,1.168c0,7.625-15.511,14.062-33.869,14.064
		c-18.359,0-33.869-6.441-33.869-14.062c0-3.521,3.485-7.058,9.56-9.699c6.376-2.775,14.854-4.311,23.901-4.351l-4.161,4.155
		c-0.455,0.456-0.455,1.196,0,1.651c0.229,0.229,0.528,0.341,0.827,0.341s0.598-0.116,0.827-0.341l6.989-6.983l-6.989-6.989
		c-0.455-0.455-1.196-0.455-1.651,0s-0.455,1.196,0,1.651l4.179,4.179c-9.369,0.042-18.182,1.649-24.849,4.547
		C3.894,30.515,0,34.723,0,39.284c0,9.2,15.905,16.401,36.205,16.401C56.507,55.681,72.41,48.475,72.41,39.28
		C72.405,38.637,71.881,38.112,71.237,38.112z"/>
</g>
<g>
</g>
<g>
</g>
<g>
</g>
<g>
</g>
<g>
</g>
<g>
</g>
<g>
</g>
<g>
</g>
<g>
</g>
<g>
</g>
<g>
</g>
<g>
</g>
<g>
</g>
<g>
</g>
<g>
</g>
</svg>
