<svg width="68" height="60" viewBox="0 0 68 60" fill="none" xmlns="http://www.w3.org/2000/svg">
<path d="M49.2163 57.0344C44.5009 59.0937 39.3316 59.8827 34.2221 59.3273L34.4827 57.2567C39.2194 57.7654 44.0102 57.0311 48.3812 55.1222C52.9051 53.1465 56.8115 49.9859 59.6881 45.9741C62.5646 41.9624 64.3045 37.2483 64.724 32.3297C65.1435 27.4111 64.2271 22.4704 62.0715 18.0295C59.9159 13.5885 56.6011 9.812 52.4772 7.09874C48.3532 4.38548 43.5731 2.83613 38.6417 2.6143C33.7102 2.39247 28.8103 3.50639 24.4594 5.83843C20.2555 8.09169 16.7148 11.4014 14.1842 15.4376L12.3961 14.3614C15.1207 10.0033 18.9386 6.43011 23.4736 3.99934C28.1557 1.48979 33.4286 0.291088 38.7354 0.529804C44.0423 0.768517 49.1862 2.43579 53.624 5.35558C58.0619 8.27537 61.629 12.3393 63.9487 17.1183C66.2683 21.8973 67.2545 27.214 66.8031 32.507C66.3516 37.8 64.4793 42.8729 61.3838 47.19C58.2883 51.5071 54.0845 54.9083 49.2163 57.0344Z" fill="black" stroke="black" stroke-linecap="round"/>
<path d="M9.09616 7.4419C9.22983 6.6838 10.1341 6.35469 10.7238 6.8495L21.3384 15.7562C21.9281 16.251 21.761 17.1987 21.0376 17.462L8.01685 22.2011C7.29347 22.4644 6.55634 21.8459 6.69002 21.0878L9.09616 7.4419Z" fill="black"/>
<ellipse cx="33.9348" cy="58.25" rx="1.525" ry="1.55" fill="black"/>
</svg>
