<svg width="65" height="60" viewBox="0 0 65 60" fill="none" xmlns="http://www.w3.org/2000/svg">
<path d="M18.1935 57.0344C22.9089 59.0937 28.0781 59.8827 33.1877 59.3273L32.9271 57.2567C28.1904 57.7654 23.3996 57.0311 19.0286 55.1222C14.5047 53.1465 10.5983 49.9859 7.72173 45.9741C4.84519 41.9624 3.1053 37.2483 2.68579 32.3297C2.26627 27.4111 3.18269 22.4704 5.33829 18.0295C7.49389 13.5885 10.8087 9.812 14.9326 7.09874C19.0566 4.38548 23.8366 2.83613 28.7681 2.6143C33.6996 2.39247 38.5995 3.50639 42.9504 5.83843C47.1543 8.09169 50.695 11.4014 53.2256 15.4376L55.0137 14.3614C52.289 10.0033 48.4712 6.43011 43.9361 3.99934C39.2541 1.48979 33.9812 0.291088 28.6744 0.529804C23.3675 0.768517 18.2236 2.43579 13.7857 5.35558C9.34789 8.27537 5.78081 12.3393 3.46114 17.1183C1.14146 21.8973 0.155283 27.214 0.60673 32.507C1.05818 37.8 2.9305 42.8729 6.02599 47.19C9.12149 51.5071 13.3253 54.9083 18.1935 57.0344Z" fill="black" stroke="black" stroke-linecap="round"/>
<path d="M58.1327 11.6901C57.999 10.932 57.0948 10.6029 56.5051 11.0977L49.871 16.6644C49.2813 17.1592 49.4484 18.1068 50.1717 18.3701L58.3097 21.3321C59.0331 21.5954 59.7702 20.9769 59.6365 20.2188L58.1327 11.6901Z" fill="black"/>
<ellipse rx="1.525" ry="1.55" transform="matrix(-1 0 0 1 33.475 58.25)" fill="black"/>
</svg>
