<svg width="512" height="512" viewBox="0 0 512 512" fill="none" xmlns="http://www.w3.org/2000/svg">
<g clip-path="url(#clip0)">
<path d="M448.362 512L304.62 368.259L256.444 511.777L114.206 114.205L511.778 256.444L368.26 304.621L512 448.363L448.362 512ZM420.198 255.543L163.817 163.817L255.542 420.198L291.592 312.805L448.362 469.575L469.574 448.363L312.804 291.593L420.198 255.543Z" fill="black"/>
<path d="M86.6718 206.631L65.4623 185.422L5.47278 245.411L26.6822 266.621L86.6718 206.631Z" fill="black"/>
<path d="M266.629 26.6349L245.42 5.42549L185.43 65.415L206.64 86.6245L266.629 26.6349Z" fill="black"/>
<path d="M86.6538 65.4313L26.6642 5.44178L5.45477 26.6512L65.4443 86.6408L86.6538 65.4313Z" fill="black"/>
<path d="M150.996 0H120.997V59.9985H150.996V0Z" fill="black"/>
<path d="M60.8875 120.997H-0.000986866V150.996H60.8875V120.997Z" fill="black"/>
</g>
<defs>
<clipPath id="clip0">
<rect width="512" height="512" fill="white" transform="matrix(-1 0 0 1 512 0)"/>
</clipPath>
</defs>
</svg>
