<svg width="420" height="512" viewBox="0 0 420 512" fill="none" xmlns="http://www.w3.org/2000/svg">
<path d="M377.352 155.579C362.604 142.7 345.873 131.687 327.62 122.956L315.723 131.575L344.222 245.324L355.424 248.297C396.789 237.375 410.25 184.306 377.352 155.579V155.579Z" fill="#BEC4CA"/>
<path d="M338.656 356.45C331.532 348.337 322.432 341.446 311.316 336.455C289.375 326.603 275.878 313.533 275.878 299.059C275.878 283.493 291.455 269.597 316.282 259.555L327.62 248.297L286.301 112.243L265.474 96.9089L250.905 101.518C120.457 88.11 7.64337 180.938 7.64337 299.057C7.64337 438.745 162.132 534.83 304.925 484.549C333.902 474.346 351.21 451.063 356.391 425.48L364.806 418.239L354.139 359.907L338.656 356.45Z" fill="#CED4DA"/>
<path d="M68.3097 299.057C68.3097 193.49 158.425 108.135 270.7 100.756L265.474 96.9089L250.905 101.518C120.457 88.11 7.64337 180.938 7.64337 299.057C7.64337 423.013 129.295 512.618 256.473 496.098C153.86 482.784 68.3097 403.003 68.3097 299.057Z" fill="#B2C4CA"/>
<path d="M120.911 240.707C138.948 240.707 153.569 226.085 153.569 208.049C153.569 190.012 138.948 175.391 120.911 175.391C102.875 175.391 88.2534 190.012 88.2534 208.049C88.2534 226.085 102.875 240.707 120.911 240.707Z" fill="#F87C68"/>
<path d="M209.326 198.676C226.824 198.676 241.008 184.492 241.008 166.994C241.008 149.497 226.824 135.312 209.326 135.312C191.829 135.312 177.644 149.497 177.644 166.994C177.644 184.492 191.829 198.676 209.326 198.676Z" fill="#FFD064"/>
<path d="M137.032 430.977C154.53 430.977 168.714 416.792 168.714 399.295C168.714 381.797 154.53 367.613 137.032 367.613C119.535 367.613 105.35 381.797 105.35 399.295C105.35 416.792 119.535 430.977 137.032 430.977Z" fill="#5291D9"/>
<path d="M229.3 460.583C246.798 460.583 260.982 446.399 260.982 428.901C260.982 411.404 246.798 397.219 229.3 397.219C211.803 397.219 197.618 411.404 197.618 428.901C197.618 446.399 211.803 460.583 229.3 460.583Z" fill="#95D6A4"/>
<path d="M84.6789 345.147C105.79 345.147 122.904 328.033 122.904 306.922C122.904 285.811 105.79 268.697 84.6789 268.697C63.5678 268.697 46.4539 285.811 46.4539 306.922C46.4539 328.033 63.5678 345.147 84.6789 345.147Z" fill="#FF94D5"/>
<path d="M120.761 203.049C120.761 190.932 127.365 180.365 137.165 174.728C132.377 171.974 126.831 170.391 120.911 170.391C102.875 170.391 88.2534 185.012 88.2534 203.049C88.2534 221.086 102.874 235.707 120.911 235.707C126.831 235.707 132.377 234.124 137.165 231.37C127.365 225.733 120.761 215.165 120.761 203.049V203.049Z" fill="#EC625E"/>
<path d="M210.152 165.994C210.152 154.439 216.34 144.333 225.58 138.799C220.828 135.952 215.269 134.312 209.326 134.312C191.828 134.312 177.644 148.497 177.644 165.994C177.644 183.491 191.828 197.676 209.326 197.676C215.269 197.676 220.827 196.036 225.58 193.189C216.34 187.655 210.152 177.548 210.152 165.994Z" fill="#FFC250"/>
<path d="M137.858 399.295C137.858 387.74 144.046 377.634 153.286 372.099C148.533 369.252 142.975 367.613 137.032 367.613C119.535 367.613 105.35 381.797 105.35 399.295C105.35 416.793 119.535 430.977 137.032 430.977C142.975 430.977 148.533 429.337 153.286 426.491C144.046 420.956 137.858 410.849 137.858 399.295Z" fill="#2E82D4"/>
<path d="M230.125 428.901C230.125 417.346 236.313 407.24 245.553 401.705C240.801 398.858 235.242 397.218 229.299 397.218C211.801 397.218 197.617 411.403 197.617 428.9C197.617 446.397 211.801 460.582 229.299 460.582C235.242 460.582 240.8 458.942 245.553 456.096C236.313 450.562 230.125 440.456 230.125 428.901Z" fill="#78C2A4"/>
<path d="M78.9619 306.922C78.9619 291.624 87.9519 278.432 100.933 272.322C95.9999 270 90.4929 268.697 84.6789 268.697C63.5679 268.697 46.4539 285.811 46.4539 306.922C46.4539 328.033 63.5679 345.147 84.6789 345.147C90.4919 345.147 95.9999 343.843 100.933 341.521C87.9509 335.412 78.9619 322.22 78.9619 306.922V306.922Z" fill="#FF72C7"/>
<path d="M331.117 59.2283C323.753 32.1426 298.703 32.4786 275.783 9.6689C271.798 5.70295 265.427 7.43493 263.999 12.8729C255.784 44.1475 234.013 56.5413 241.378 83.627C247.305 105.426 266.725 115.129 277.583 118.944L283.724 123.951L315.724 116.451L317.778 108.016C325.21 99.2268 337.043 81.0261 331.117 59.2283Z" fill="#E39B74"/>
<path d="M307.005 115.277C296.147 111.462 276.726 101.758 270.799 79.9601C264.424 56.5143 279.875 44.0685 289.473 20.8658C284.928 17.7748 280.315 14.1778 275.783 9.66789C271.798 5.70194 265.427 7.43392 263.999 12.8719C255.784 44.1465 234.013 56.5403 241.378 83.626C247.305 105.425 266.725 115.128 277.583 118.943L283.724 123.95L310.07 117.775L307.005 115.277Z" fill="#DD8858"/>
<path d="M325.512 115.202C324.062 109.869 318.563 106.72 313.229 108.171L281.583 116.775C276.25 118.225 273.101 123.724 274.552 129.058L290.672 188.35L296.474 192.577L339.807 182.244L341.633 174.495L325.512 115.202Z" fill="#477B9E"/>
<path d="M317.882 182.824L300.684 119.569C299.888 116.642 300.398 113.674 301.847 111.265L281.583 116.774C276.25 118.224 273.101 123.723 274.552 129.057L290.672 188.349L296.474 192.576L322.688 186.325L317.882 182.824Z" fill="#3F6D8E"/>
<path d="M412.218 478.997C411.872 445.356 406.639 411.944 396.684 379.808L342.095 205.808L334.974 200.825L307.916 206.95L306.129 215.586L347.159 393.272C354.846 426.025 367.252 457.488 383.988 486.672L390.898 498.723C393.5 503.26 398.836 505.468 403.883 504.096C408.93 502.724 412.414 498.117 412.36 492.887L412.218 478.997Z" fill="#FFD064"/>
<path d="M407.513 476.672C390.777 447.487 378.371 416.025 370.684 383.273L329.654 205.587L330.426 201.855L307.916 206.95L306.129 215.586L347.159 393.272C354.846 426.025 367.252 457.488 383.988 486.672L390.898 498.723C393.5 503.26 398.836 505.468 403.883 504.096C408.93 502.724 412.414 498.117 412.36 492.887L412.279 484.984L407.513 476.672Z" fill="#FFC250"/>
<path d="M340.137 174.752L292.094 187.814C287.56 189.047 284.884 193.721 286.117 198.254L289.651 211.251C290.884 215.785 295.558 218.46 300.092 217.228L348.135 204.166C352.669 202.933 355.344 198.259 354.112 193.726L350.578 180.729C349.345 176.196 344.67 173.52 340.137 174.752Z" fill="#5895B7"/>
<path d="M319.817 203.248L316.044 189.371C315.176 186.177 316.132 182.924 318.269 180.698L292.094 187.815C287.56 189.048 284.884 193.722 286.117 198.255L289.651 211.252C290.884 215.785 295.558 218.461 300.091 217.229L327.244 209.846C323.789 209.329 320.793 206.836 319.817 203.248V203.248Z" fill="#477B9E"/>
<path d="M120.909 248.206C143.052 248.206 161.066 230.191 161.066 208.048C161.066 185.905 143.051 167.89 120.909 167.89C98.7655 167.89 80.7515 185.905 80.7515 208.048C80.7515 230.191 98.7655 248.206 120.909 248.206V248.206ZM120.909 182.89C134.781 182.89 146.066 194.176 146.066 208.048C146.066 221.92 134.781 233.206 120.909 233.206C107.037 233.206 95.7515 221.92 95.7515 208.048C95.7515 194.176 107.037 182.89 120.909 182.89Z" fill="black"/>
<path d="M209.324 206.175C230.928 206.175 248.506 188.598 248.506 166.993C248.506 145.388 230.929 127.811 209.324 127.811C187.719 127.811 170.141 145.388 170.141 166.993C170.141 188.598 187.719 206.175 209.324 206.175V206.175ZM209.324 142.811C222.658 142.811 233.506 153.659 233.506 166.993C233.506 180.327 222.658 191.175 209.324 191.175C195.99 191.175 185.141 180.327 185.141 166.993C185.141 153.659 195.99 142.811 209.324 142.811V142.811Z" fill="black"/>
<path d="M137.03 438.476C158.634 438.476 176.212 420.899 176.212 399.294C176.212 377.689 158.635 360.112 137.03 360.112C115.425 360.112 97.8473 377.689 97.8473 399.294C97.8473 420.899 115.425 438.476 137.03 438.476V438.476ZM137.03 375.113C150.364 375.113 161.212 385.961 161.212 399.295C161.212 412.629 150.364 423.477 137.03 423.477C123.696 423.477 112.847 412.629 112.847 399.295C112.847 385.961 123.696 375.113 137.03 375.113Z" fill="black"/>
<path d="M229.298 468.083C250.902 468.083 268.48 450.506 268.48 428.901C268.48 407.296 250.903 389.719 229.298 389.719C207.693 389.719 190.115 407.296 190.115 428.901C190.115 450.506 207.692 468.083 229.298 468.083ZM229.298 404.719C242.632 404.719 253.48 415.567 253.48 428.901C253.48 442.235 242.632 453.083 229.298 453.083C215.964 453.083 205.115 442.235 205.115 428.901C205.115 415.567 215.964 404.719 229.298 404.719Z" fill="black"/>
<path d="M38.952 306.921C38.952 332.134 59.4637 352.646 84.6764 352.646C109.889 352.646 130.401 332.134 130.401 306.921C130.401 281.709 109.889 261.197 84.6764 261.197C59.4637 261.197 38.952 281.709 38.952 306.921ZM84.6764 276.197C101.617 276.197 115.401 289.98 115.401 306.921C115.401 323.863 101.618 337.646 84.6764 337.646C67.7346 337.646 53.9518 323.863 53.9518 306.921C53.9518 289.98 67.7346 276.197 84.6764 276.197Z" fill="black"/>
<path d="M0.141968 299.057C0.141968 412.195 97.6078 498.193 211.343 505.121C211.498 505.13 211.653 505.135 211.806 505.135C215.739 505.135 219.042 502.07 219.284 498.091C219.536 493.957 216.388 490.401 212.254 490.149C101.724 483.416 15.1418 399.479 15.1418 299.057C15.1418 185.28 123.474 97.4878 247.271 108.702C252.903 114.571 259.833 119.275 267.085 122.718C266.49 125.459 266.594 128.382 267.314 131.025L282.158 185.622C278.702 189.661 277.501 195.16 278.88 200.223L282.413 213.22C284.562 221.137 292.473 226.201 300.558 224.799L307.564 255.138C282.231 266.679 268.378 282.134 268.378 299.058C268.378 316.043 282.536 331.755 308.243 343.297C317.385 347.401 325.296 353.026 331.785 360.029C340.035 396.244 342.572 407.735 348.619 425.941C343.021 450.359 326.283 469.076 302.432 477.475C284.235 483.883 265.295 487.988 246.14 489.676C242.014 490.04 238.963 493.679 239.327 497.805C239.69 501.932 243.343 504.977 247.456 504.618C267.86 502.82 288.034 498.448 307.414 491.623C329.477 483.854 346.897 468.114 356.721 447.819C366.751 472.426 375.893 487.633 384.391 502.454C388.687 509.949 397.511 513.601 405.85 511.334C414.187 509.067 419.947 501.451 419.859 492.811C419.601 467.687 420.263 429.921 402.611 373.651C401.371 369.699 397.164 367.5 393.21 368.74C389.258 369.98 387.06 374.189 388.299 378.141C404.869 430.956 404.583 465.997 404.86 492.965C404.88 494.781 403.669 496.382 401.916 496.859C400.166 497.336 398.308 496.568 397.404 494.992C365.849 439.962 361.873 423.639 345.965 354.762C345.965 354.762 315.061 220.93 315.061 220.929L337.1 214.937L348.27 250.541V250.542L377.82 344.733C379.06 348.685 383.265 350.884 387.22 349.644C391.172 348.404 393.371 344.195 392.131 340.243L364.781 253.061C406.103 236.318 417.662 180.821 382.286 149.928C367.789 137.269 351.538 126.472 333.974 117.745L332.747 113.233C331.998 110.475 330.613 108.002 328.728 105.961C336.299 94.7819 343.853 77.4921 338.352 57.2583C333.071 37.8375 320.088 30.3446 306.344 22.4127C298.008 17.6018 289.389 12.6268 281.073 4.34994C272.992 -3.68896 259.644 -0.0780078 256.743 10.9639C253.763 22.3127 248.847 30.9676 244.095 39.3375C236.172 53.2904 226.523 69.5282 236.743 92.9849C109.431 87.504 0.141968 179.846 0.141968 299.057V299.057ZM326.243 336.033C322.504 333.636 318.555 331.484 314.387 329.613C294.68 320.764 283.377 309.627 283.377 299.057C283.377 288.996 293.335 278.659 311.014 270.083L326.243 336.033ZM372.418 161.228C398.968 184.413 390.405 225.766 360.279 238.716C352.532 214.024 354.633 220.719 351.562 210.93C359.407 207.928 363.455 199.521 361.346 191.759L357.813 178.761C356.428 173.672 352.585 169.551 347.592 167.83L339.38 137.627C351.204 144.464 362.269 152.365 372.418 161.228ZM342.103 181.989L342.106 181.988C342.588 181.858 343.182 182.122 343.337 182.696L346.87 195.693C347.016 196.229 346.698 196.783 346.163 196.928C336.127 199.657 307.27 207.502 298.12 209.99C297.596 210.136 297.035 209.828 296.886 209.283L293.353 196.285C293.198 195.712 293.591 195.177 294.06 195.05L342.103 181.989ZM332.388 169.086L295.904 179.005L281.789 127.088C281.424 125.754 282.261 124.363 283.551 124.011L315.196 115.407C316.425 115.07 317.885 115.741 318.273 117.169C322.915 134.243 319.659 122.268 332.388 169.086ZM257.139 46.7464C262.021 38.1505 267.539 28.4317 271.052 15.5368C280.576 24.8617 290.274 30.4576 298.847 35.4066C311.255 42.5675 320.22 47.7404 323.878 61.1963C328.349 77.6381 320.652 91.9739 314.276 100.391C313.31 100.478 312.179 100.684 311.259 100.934L279.614 109.538C278.649 109.8 277.543 110.217 276.741 110.596C263.474 105.151 252.406 95.6159 248.612 81.66C244.954 68.2042 250.065 59.2033 257.139 46.7464Z" fill="black"/>
</svg>
