<svg width="427" height="342" viewBox="0 0 427 342" fill="none" xmlns="http://www.w3.org/2000/svg">
<path d="M384.333 342H43C19.4694 342 0.333374 322.864 0.333374 299.333V43.3334C0.333374 19.8027 19.4694 0.666687 43 0.666687H384.333C407.864 0.666687 427 19.8027 427 43.3334V299.333C427 322.864 407.864 342 384.333 342ZM43 22C31.2454 22 21.6667 31.5787 21.6667 43.3334V299.333C21.6667 311.088 31.2454 320.667 43 320.667H384.333C396.088 320.667 405.667 311.088 405.667 299.333V43.3334C405.667 31.5787 396.088 22 384.333 22H43Z" fill="black"/>
<path d="M107 150C83.4694 150 64.3334 130.864 64.3334 107.333C64.3334 83.8027 83.4694 64.6667 107 64.6667C130.531 64.6667 149.667 83.8027 149.667 107.333C149.667 130.864 130.531 150 107 150ZM107 86C95.2454 86 85.6667 95.5787 85.6667 107.333C85.6667 119.088 95.2454 128.667 107 128.667C118.755 128.667 128.333 119.088 128.333 107.333C128.333 95.5787 118.755 86 107 86Z" fill="black"/>
<path d="M12.4933 319.173C9.76262 319.173 7.03196 318.128 4.94129 316.059C0.781289 311.899 0.781289 305.136 4.94129 300.976L105.699 200.219C117.773 188.144 138.872 188.144 150.947 200.219L180.941 230.213L263.971 130.587C270.008 123.355 278.883 119.152 288.333 119.067H288.568C297.912 119.067 306.765 123.12 312.867 130.224L424.44 260.4C428.28 264.859 427.768 271.6 423.288 275.44C418.829 279.28 412.109 278.789 408.248 274.288L296.675 144.112C294.605 141.723 291.747 140.4 288.568 140.4C286.349 140.208 282.445 141.744 280.376 144.24L189.859 252.848C187.939 255.152 185.144 256.539 182.136 256.667C179.107 256.88 176.227 255.685 174.115 253.552L135.864 215.301C131.832 211.291 124.813 211.291 120.781 215.301L20.024 316.059C17.9546 318.128 15.224 319.173 12.4933 319.173V319.173Z" fill="black"/>
</svg>
