<svg width="65" height="60" viewBox="0 0 65 60" fill="none" xmlns="http://www.w3.org/2000/svg">
<path d="M46.2163 57.0344C41.5009 59.0937 36.3316 59.8827 31.2221 59.3273L31.4827 57.2567C36.2194 57.7654 41.0102 57.0311 45.3812 55.1222C49.9051 53.1465 53.8115 49.9859 56.6881 45.9741C59.5646 41.9624 61.3045 37.2483 61.724 32.3297C62.1435 27.4111 61.2271 22.4704 59.0715 18.0295C56.9159 13.5885 53.6011 9.812 49.4772 7.09874C45.3532 4.38548 40.5731 2.83613 35.6417 2.6143C30.7102 2.39247 25.8103 3.50639 21.4594 5.83843C17.2555 8.09169 13.7148 11.4014 11.1842 15.4376L9.39611 14.3614C12.1207 10.0033 15.9386 6.43011 20.4736 3.99934C25.1557 1.48979 30.4286 0.291088 35.7354 0.529804C41.0423 0.768517 46.1862 2.43579 50.624 5.35558C55.0619 8.27537 58.629 12.3393 60.9487 17.1183C63.2683 21.8973 64.2545 27.214 63.8031 32.507C63.3516 37.8 61.4793 42.8729 58.3838 47.19C55.2883 51.5071 51.0845 54.9083 46.2163 57.0344Z" fill="black" stroke="black" stroke-linecap="round"/>
<path d="M6.27708 11.6901C6.41076 10.932 7.31497 10.6029 7.90468 11.0977L14.5388 16.6644C15.1285 17.1592 14.9614 18.1068 14.238 18.3701L6.10007 21.3321C5.3767 21.5954 4.63957 20.9769 4.77324 20.2188L6.27708 11.6901Z" fill="black"/>
<ellipse cx="30.9348" cy="58.25" rx="1.525" ry="1.55" fill="black"/>
</svg>
